<?xml version="1.0" encoding="UTF-8"?> <svg xmlns="http://www.w3.org/2000/svg" xmlns:xlink="http://www.w3.org/1999/xlink" xml:space="preserve" width="159.173mm" height="40.6398mm" version="1.1" style="shape-rendering:geometricPrecision; text-rendering:geometricPrecision; image-rendering:optimizeQuality; fill-rule:evenodd; clip-rule:evenodd" viewBox="0 0 15917.32 4063.98"> <defs> <style type="text/css"> .fil2 {fill:none} .fil5 {fill:#151616} .fil4 {fill:#3779BC} .fil3 {fill:#DD2B1C} .fil6 {fill:black;fill-rule:nonzero} .fil0 {fill:#3679BC;fill-rule:nonzero} .fil1 {fill:#DD2B1C;fill-rule:nonzero} </style> <clipPath id="id0"> <path d="M4305.49 4062.43zm3653.17 -2030.44"></path> </clipPath> </defs> <g id="Layer_x0020_1"> <metadata id="CorelCorpID_0Corel-Layer"></metadata> <g id="_1847515210848"> <g> <g> </g> </g> </g> <g id="_1847515209088"> <g> <g> </g> </g> </g> <g id="_1847515208160"> <g> <g> </g> </g> </g> <g id="_1847515207264"> <g> <g> </g> </g> </g> <g id="_1847515207232"> <g> <g> </g> </g> </g> <g id="_1847513080752"> <g> <g> </g> </g> </g> <g id="_1847513080144"> <g> <g> </g> </g> </g> <g id="_1847513079280"> <g> <g> </g> </g> </g> <g id="_1847513078352"> <g> <g> </g> </g> </g> <g id="_1847513077200"> <g> <g> </g> </g> </g> <g id="_1847513075408"> <g> <g> </g> </g> </g> <g id="_1847513074960"> <g> <g> </g> </g> </g> <g> </g> <g style="clip-path:url(#id0)"> <g> <path class="fil0" d="M6282.7 5643.04l-1014.38 0 0 -310.47 1014.38 0 0 310.47zm81.16 748.83l-1535.82 0 0 -1781.53 1534.72 0 0 310.47 -1225.07 0 0 1160.59 1225.07 0 1.1 310.47zm1591.64 0l-702.53 0c-181.21,0 -330.86,-60.22 -448.82,-180.66 -117.96,-120.3 -178.05,-273.54 -178.05,-457.23 0,-182.73 58.98,-330.6 175.98,-442.49 116.86,-111.9 267.48,-167.85 450.89,-167.85l701.56 0 0 217.46 -701.56 0c-119.06,0 -217.04,38.03 -293.93,115.2 -76.9,77.03 -115.89,175.29 -115.89,295.59 0,119.34 38.99,216.49 115.89,290.49 76.89,73.86 174.87,111.9 293.93,111.9l701.56 0 0.97 217.59zm1473.67 0l-216.9 0 0 -519.66 -731.05 0 0 -217.45 731.05 0 0 -511.12 216.9 0 0 1248.23zm-1045.93 0l-217.04 0 0 -1248.23 217.04 0 0 1248.23zm2835.73 -637.89c0,183.69 -58.98,335.82 -176.94,457.23 -118.1,121.4 -267.62,180.66 -449.79,180.66l-347.68 0c-181.21,0 -330.73,-60.22 -448.69,-180.66 -118.1,-120.3 -178.04,-272.44 -178.04,-457.23 0,-182.73 58.98,-330.6 175.83,-442.49 117,-111.9 267.62,-167.85 450.9,-167.85l347.68 0c184.24,0 334.86,55.95 451.86,167.85 116.85,111.89 174.87,259.76 174.87,442.49zm-214.98 17.91c0,-120.3 -38.86,-219.66 -115.75,-295.59 -77.03,-76.07 -175.98,-115.2 -296,-115.2l-347.68 0c-119.06,0 -217.04,38.03 -293.94,115.2 -76.89,77.03 -115.89,175.29 -115.89,295.59 0,119.34 39,216.49 115.89,290.49 76.9,73.86 174.88,111.9 293.94,111.9l347.68 0c120.02,0 218.97,-36.93 296,-111.9 76.89,-74.97 115.75,-171.15 115.75,-290.49z"></path> <path class="fil0" d="M6282.7 5643.04l-1014.38 0 0 -310.47 1014.38 0 0 310.47zm81.16 748.83l-1535.82 0 0 -1781.53 1534.72 0 0 310.47 -1225.07 0 0 1160.59 1225.07 0 1.1 310.47zm1591.64 0l-702.53 0c-181.21,0 -330.86,-60.22 -448.82,-180.66 -117.96,-120.3 -178.05,-273.54 -178.05,-457.23 0,-182.73 58.98,-330.6 175.98,-442.49 116.86,-111.9 267.48,-167.85 450.89,-167.85l701.56 0 0 217.46 -701.56 0c-119.06,0 -217.04,38.03 -293.93,115.2 -76.9,77.03 -115.89,175.29 -115.89,295.59 0,119.34 38.99,216.49 115.89,290.49 76.89,73.86 174.87,111.9 293.93,111.9l701.56 0 0.97 217.59zm1473.67 0l-216.9 0 0 -519.66 -731.05 0 0 -217.45 731.05 0 0 -511.12 216.9 0 0 1248.23zm-1045.93 0l-217.04 0 0 -1248.23 217.04 0 0 1248.23zm2835.73 -637.89c0,183.69 -58.98,335.82 -176.94,457.23 -118.1,121.4 -267.62,180.66 -449.79,180.66l-347.68 0c-181.21,0 -330.73,-60.22 -448.69,-180.66 -118.1,-120.3 -178.04,-272.44 -178.04,-457.23 0,-182.73 58.98,-330.6 175.83,-442.49 117,-111.9 267.62,-167.85 450.9,-167.85l347.68 0c184.24,0 334.86,55.95 451.86,167.85 116.85,111.89 174.87,259.76 174.87,442.49zm-214.98 17.91c0,-120.3 -38.86,-219.66 -115.75,-295.59 -77.03,-76.07 -175.98,-115.2 -296,-115.2l-347.68 0c-119.06,0 -217.04,38.03 -293.94,115.2 -76.89,77.03 -115.89,175.29 -115.89,295.59 0,119.34 39,216.49 115.89,290.49 76.9,73.86 174.88,111.9 293.94,111.9l347.68 0c120.02,0 218.97,-36.93 296,-111.9 76.89,-74.97 115.75,-171.15 115.75,-290.49z"></path> <path class="fil1" d="M11980.47 6398.21l335 -1880.89 785.9 0c135.87,0 252.73,16.95 321.22,47.55 68.49,30.59 127.47,83.37 173.91,159.44 46.3,76.06 57.88,170.04 61.04,262.92 2.07,77.17 -23.15,147.87 -52.64,228.21 -42.16,116.17 -148.55,237.57 -249.7,308.27 -53.74,38.03 -116.85,63.38 -151.72,71.79 -120.03,27.56 -242.26,42.31 -364.49,42.31l-470.74 0 -138.08 760.4 -249.7 0zm1548.5 -6.34l716.31 -748.83 -392.88 -700.04 283.32 -6.34 140.15 257.56c51.68,96.18 95.91,187.96 134.91,275.74l494.03 -533.3 270.64 -6.34 -645.74 678.96 418.23 781.49 -293.94 0 -303.3 -582.91 -537.3 582.91 -284.43 1.1zm-1125.99 -980.06l417.13 0c161.09,0 280.16,-17.92 353.88,-51.68 73.73,-33.9 122.23,-79.24 165.37,-150.07 43.27,-70.69 60.08,-137.25 58.01,-216.49 -2.07,-61.18 -15.85,-105.55 -41.06,-143.59 -25.36,-38.03 -44.24,-71.79 -88.47,-90.81 -44.24,-19.02 -129.68,-27.42 -253.98,-27.42l-485.62 0 -125.26 680.06zm0 0z"></path> <path class="fil1" d="M11980.47 6398.21l335 -1880.89 785.9 0c135.87,0 252.73,16.95 321.22,47.55 68.49,30.59 127.47,83.37 173.91,159.44 46.3,76.06 57.88,170.04 61.04,262.92 2.07,77.17 -23.15,147.87 -52.64,228.21 -42.16,116.17 -148.55,237.57 -249.7,308.27 -53.74,38.03 -116.85,63.38 -151.72,71.79 -120.03,27.56 -242.26,42.31 -364.49,42.31l-470.74 0 -138.08 760.4 -249.7 0zm1548.5 -6.34l716.31 -748.83 -392.88 -700.04 283.32 -6.34 140.15 257.56c51.68,96.18 95.91,187.96 134.91,275.74l494.03 -533.3 270.64 -6.34 -645.74 678.96 418.23 781.49 -293.94 0 -303.3 -582.91 -537.3 582.91 -284.43 1.1zm-1125.99 -980.06l417.13 0c161.09,0 280.16,-17.92 353.88,-51.68 73.73,-33.9 122.23,-79.24 165.37,-150.07 43.27,-70.69 60.08,-137.25 58.01,-216.49 -2.07,-61.18 -15.85,-105.55 -41.06,-143.59 -25.36,-38.03 -44.24,-71.79 -88.47,-90.81 -44.24,-19.02 -129.68,-27.42 -253.98,-27.42l-485.62 0 -125.26 680.06zm0 0z"></path> </g> </g> <line class="fil2" x1="4305.49" y1="4062.43" x2="7958.66" y2="2031.99"></line> <g> <g id="_1847513088752"> <path class="fil3" d="M1876.77 3890.42c-296.79,-17.94 -609.67,-121.04 -860.73,-284.19 -446.51,-288.7 -747.77,-737.96 -834.72,-1242.74 -86.98,-508.32 23.31,-1003.25 316.48,-1413.02 232.23,-326.33 553.16,-561.25 940.52,-689.45 135.39,-43.9 203.54,-59.19 348.75,-77.1 482.39,-58.29 953.14,66.39 1344.94,356.85 103.09,77.1 290.45,261.8 365.79,362.22 189.22,250.1 302.13,516.44 362.22,854.45 16.15,91.49 16.15,456.33 0,546.93 -69.01,386.42 -219.66,708.28 -448.3,959.31 -35.85,38.57 -48.45,47.55 -59.19,40.36 -17.02,-10.72 -314.7,-221.42 -520.9,-367.59 -83.39,-60.06 -255.53,-181.13 -381.02,-269.84 -125.57,-88.83 -307.56,-217.89 -403.5,-286.04 -95.93,-68.15 -200.85,-142.59 -233.15,-164.98 -32.23,-22.41 -86.08,-60.11 -121,-85.22 -156.02,-111.12 -560.39,-397.14 -605.22,-428.54 -26.89,-18.8 -60.92,-43.9 -76.21,-55.58l-26.89 -21.52 31.37 -65.46c104.03,-218.76 286.01,-405.29 497.61,-510.14 172.14,-85.16 310.22,-117.46 502.09,-117.46 313.8,0 573.82,110.29 792.55,337.11 181.16,187.43 278.88,401.68 305.77,668.86 14.33,139.87 -8.92,327.23 -57.36,463.56l-13.5 38.53 118.38 86.95c65.46,48.45 122.86,90.59 129.16,94.17 12.51,8.06 23.25,-15.28 65.4,-135.39 52.03,-146.14 67.25,-246.58 67.25,-450.09 0,-227.72 -19.73,-340.7 -87.85,-511.05 -86.08,-216.08 -208.01,-394.51 -372.09,-540.65 -188.29,-169.46 -398.1,-276.14 -665.28,-339.8 -116.53,-26.9 -428.57,-29.55 -546.92,-4.48 -398.06,86.98 -713.69,300.34 -926.18,625.78 -99.52,152.44 -177.51,351.5 -207.99,532.6 -20.62,116.56 -20.62,362.25 0,474.3 40.36,225.96 149.72,467.1 295.86,650.95 283.33,355.94 771.06,564.83 1215.75,521.75 196.38,-19.7 378.4,-71.69 534.45,-153.24l66.29 -34.98 11.67 19.7c19.73,31.4 202.65,364.04 202.65,367.62 0,9.85 -123.76,72.65 -224.17,113.87 -121.93,50.21 -341.59,109.34 -461.73,123.73 -105.82,12.5 -263.6,16.11 -381.05,8.95l0 0z"></path> <g> <path class="fil3" d="M12301.36 2495.34c-4.44,-8.99 355.12,-2020.93 364.04,-2036.18 5.34,-8.09 98.68,-10.75 416.99,-10.75 676.85,0 778.16,16.15 901.02,139.91 92.26,93.22 132.68,203.51 133.54,366.69 0.99,151.52 -54.65,302.13 -160.43,433.92 -96.83,121.03 -213.39,204.43 -328.19,233.12 -145.22,37.64 -250.11,45.73 -585.49,45.73 -279.71,0 -318.19,1.79 -323.62,14.35 -2.72,7.2 -37.7,193.69 -78,414.22l-72.65 400.78 -131.81 2.66c-71.67,0.89 -132.65,-0.87 -135.4,-4.45l0 0zm1176.32 -1091.16c136.26,-28.69 234.08,-95.04 295.95,-200.82 50.21,-84.3 66.33,-149.79 61.88,-239.39 -2.75,-57.4 -9.91,-85.19 -29.64,-125.55 -31.37,-64.5 -82.44,-116.56 -127.34,-129.99 -53.69,-16.12 -254.67,-26 -528.95,-26.89 -233.09,0 -252.82,0.89 -257.27,16.11 -8.05,25.11 -130.94,698.47 -130.94,714.59 0,14.39 21.45,15.28 325.47,10.77 242.91,-3.58 341.5,-8.09 390.84,-18.83l0 0z"></path> <path class="fil3" d="M13989.74 2487.25c0,-4.48 123.63,-134.47 580.02,-611.43 105.79,-109.39 190.08,-202.67 188.23,-206.25 -80.59,-138.95 -419.59,-747.75 -416.84,-749.54 0.87,-1.79 69.91,-5.4 151.51,-8.99l148.89 -5.37 84.2 154.2c46.63,85.19 113.85,215.18 150.65,288.7l65.46 134.5 60.03 -62.74c33.22,-34.09 153.36,-163.19 269.06,-287.81l208.79 -225.95 142.59 -2.69c78.11,-1.79 142.58,-0.89 142.58,0.93 0,3.55 -81.57,91.42 -363.14,386.36 -132.68,139.01 -261.77,275.3 -285.08,302.19l-43.88 47.55 225.03 420.45c123.75,230.41 225.03,422.31 225.03,425.89 0,3.58 -71.76,4.48 -158.68,3.58l-159.6 -2.69 -161.42 -311.11c-88.77,-172.11 -165.9,-311.12 -170.35,-309.36 -5.34,0.9 -139.01,141.7 -295.86,312.97l-286.91 311.09 -149.78 0.92c-83.31,0 -150.53,-2.71 -150.53,-5.4z"></path> <path class="fil4" d="M4512.73 1524.32l0 -968.3 1667.69 0 0 331.71 -1327 0 -1.79 628.53c-1.79,345.18 -0.89,630.29 0.9,632.08 1.79,1.8 302.19,3.59 666.14,3.59l661.75 0 0 340.72 -1667.69 0 0 -968.33z"></path> <path class="fil4" d="M7027.65 2480.12c-89.64,-14.39 -128.2,-26.9 -201.72,-64.6 -161.39,-84.26 -282.46,-239.39 -332.67,-429.46 -25.04,-94.12 -26.89,-274.35 -4.44,-367.59 27.76,-114.74 78.89,-204.44 165.9,-291.39 62.71,-64.59 90.53,-85.16 154.2,-115.67 155.99,-75.33 160.5,-75.33 660.76,-79.78l441.14 -2.69 0 242.94 -843.74 0 -68.08 22.45c-78.03,26.89 -126.44,57.34 -179.34,114.74 -75.34,81.61 -110.26,179.3 -110.26,307.53 0,190.11 97.67,340.73 267.15,408.84 50.2,20.63 57.4,20.63 490.42,25.11l439.31 4.5 2.72 119.22 2.72 118.38 -406.19 -0.89c-275.27,-0.9 -429.47,-4.51 -477.88,-11.64l0 0z"></path> <path class="fil4" d="M8148.42 2481.88c-2.75,-6.27 -3.61,-312.01 -2.75,-679.6l2.75 -667.96 114.74 -2.69 113.87 -2.72 0 1363.71 -112.08 0c-81.58,0 -113.88,-2.68 -116.53,-10.74l0 0z"></path> <path class="fil4" d="M9282.62 2210.22l0 -282.43 -396.3 -1.82 -397.21 -2.69 -2.74 -98.56c-1.79,-53.85 0,-107.6 2.74,-119.27l4.51 -19.73 392.7 0 391.79 0.86 4.51 -276.13 4.45 -276.13 224.1 0 2.75 679.57 1.76 678.73 -233.06 0 0 -282.4z"></path> <path class="fil4" d="M10301.06 2482.77c-167.63,-25.1 -256.4,-69.04 -368.45,-181.96 -45.7,-45.76 -95.93,-107.63 -114.77,-139.93 -95.07,-164.05 -120.17,-413.32 -59.13,-594.41 50.18,-149.72 167.63,-286.01 303.86,-354.19 138.14,-68.12 183.81,-75.31 477.91,-80.65 173.96,-2.69 286.88,0 345.24,7.19 277.92,34.92 491.31,211.6 559.39,463.5 26.9,99.54 26.9,291.41 0,390.93 -62.74,231.3 -240.19,412.42 -465.28,474.3 -63.67,17.01 -96.86,18.8 -347.89,21.52 -152.41,0.9 -302.13,-1.79 -330.88,-6.3l0 0zm653.67 -253.74c125.48,-46.6 225.03,-152.41 259.12,-274.35 71.79,-259.12 -52.93,-495.82 -298.58,-568.44 -69.04,-20.66 -554.06,-20.66 -631.19,-0.9 -198.17,52 -320.07,215.19 -320.07,430.37 0,83.36 17.91,159.57 51.1,220.55 30.51,56.51 106.65,132.71 162.29,163.19 87.85,47.52 114.74,51.1 436.63,48.41 262.7,-2.69 301.24,-4.48 340.7,-18.83l0 0z"></path> <path class="fil4" d="M4991.5 1665.09c-1.79,-6.27 -2.68,-81.61 -1.79,-167.66l2.69 -156.92 1102.77 0 0 331.74 -549.55 2.69c-442,1.79 -550.5,0 -554.12,-9.85l0 0z"></path> </g> </g> <g id="_1847513384128"> <g> <path class="fil5" d="M994 2096.56c-14.39,19.49 -32.89,29.83 -55.27,30.94 -22.11,1.08 -45.86,-7.59 -71.27,-25.97 -22.94,-17.01 -39.8,-36.74 -50.85,-59.12l30.97 -42c9.51,17.42 18.34,31.22 26.52,41.44 8,9.94 16.3,17.82 24.86,23.77 9.94,7.32 18.93,11.03 27.08,11.03 8.43,0.31 15.47,-3.34 20.99,-11.03 2.91,-4.16 4.42,-8.7 4.42,-13.83 0,-5.22 -1.11,-10.74 -3.31,-17.13 -1.91,-6.61 -7.62,-18.22 -17.16,-34.8 -8.56,-15.75 -14.08,-29.03 -16.55,-39.77 -2.2,-11.06 -2.5,-21.74 -0.56,-32.08 1.79,-10.19 6.36,-20.44 13.8,-30.36 13.96,-19.08 31.22,-29.42 51.94,-31 20.99,-1.35 42.82,6.4 65.73,23.25 11.37,8.56 21.16,17.67 29.34,27.61 8,9.94 15.99,21.46 23.74,34.24l-40.88 24.92c-8.15,-12.88 -15.31,-22.94 -21.55,-30.38 -6.36,-7.75 -13,-14.08 -19.92,-19.4 -9.23,-6.2 -17.63,-8.95 -25.44,-8.24 -7.38,0.4 -13.49,3.71 -18.19,9.91 -3.08,4.45 -4.69,8.86 -4.94,13.28 0,4.45 0.81,9.66 2.72,15.47 2.22,5.53 8.43,17.57 18.81,35.88 12.41,24.79 18.92,44.65 19.32,59.71 0.68,15.07 -4.13,29.52 -14.35,43.66z"></path> <polygon class="fil5" points="992.39,2187.99 1150.97,1971.91 1196.83,2005.66 1038.24,2221.71 "></polygon> <path class="fil5" d="M1287.88 2405.18l-58.54 -43.11 26.49 -232.07 -1.63 -1.08c-19.21,30.26 -33.44,51.69 -42.55,64.1l-74.6 101.65 -40.88 -30.38 158.58 -216.08 58.02 42.55 -25.44 230.99 1.11 0.52c19.08,-29.11 32.88,-49.43 41.44,-60.76l75.15 -102.73 41.44 30.38 -158.59 216.02z"></path> <path class="fil5" d="M1570.07 2334.47c-17.42,-12.44 -35.39,-15.75 -54.16,-9.94 -18.74,5.96 -36.78,20.44 -53.6,43.66 -35.36,47.92 -35.08,85.09 1.11,111.62 15.07,11.05 36.19,21.03 63.54,29.83l-28.19 38.13c-23.19,-5.53 -45.88,-16.43 -67.96,-32.61 -31.34,-22.94 -48.44,-50.11 -51.41,-81.76 -2.59,-31.25 9.11,-64.81 35.39,-100.6 16.58,-22.07 35.1,-38.38 55.82,-49.15 20.6,-11.06 41.99,-15.47 64.07,-13.22 22.11,2.16 43.26,10.87 63.52,25.91 21.08,15.47 38.44,35.94 52.55,61.35l-41.99 27.11c-5.96,-10.25 -12.05,-19.67 -18.25,-28.22 -5.93,-8.86 -12.72,-16.18 -20.44,-22.11z"></path> <polygon class="fil5" points="1666.4,2683.29 1542.12,2592.14 1700.71,2376.06 1825.05,2467.24 1797.94,2504.82 1719.48,2447.33 1684.13,2494.88 1757.03,2548.48 1729.42,2586.06 1656.49,2532.42 1615.61,2588.25 1694.07,2645.71 "></polygon> <path class="fil5" d="M1933.27 2879.76l-150.77 -111.04 23.19 -31.49 94.45 -14.88c28.35,-4.73 47.09,-8.46 56.35,-11.09 9.57,-2.44 17.42,-5.65 23.78,-9.39 6.2,-4.01 11.36,-8.83 15.47,-14.38 6.63,-9.11 8.98,-17.67 7.19,-25.42 -1.95,-7.71 -6.64,-14.38 -14.39,-19.88 -8.83,-6.18 -18.62,-10.22 -29.24,-12.2 -10.4,-2.16 -22.38,-2.71 -35.94,-1.6l-3.37 -48.08c17.33,-1.11 30.73,-0.8 40.39,0.56 9.97,1.51 19.64,4.23 29.27,8.27 9.54,3.77 19.52,9.39 29.89,17.14 13.46,9.94 23.75,21.24 30.38,33.69 6.89,12.16 9.92,24.88 8.8,38.1 -0.8,13.03 -5.37,25.16 -13.8,36.46 -7.07,10.01 -15.47,18.13 -25.38,24.37 -9.97,6.36 -22.01,11.36 -35.97,14.94 -14.08,3.24 -36.47,6.76 -67.37,10.44l-47 6.08 -1.67 2.22 93.93 69.07 -28.19 38.11z"></path> <path class="fil5" d="M2186.96 2900.54c-27.64,37.57 -54.16,60.92 -79.57,70.21 -25.38,9.11 -51.1,4.39 -76.79,-14.42 -24.74,-18.49 -36.78,-41.71 -35.95,-69.56 1.09,-27.95 15.04,-60.28 42.03,-96.74 28.31,-38.26 54.96,-61.88 80.09,-70.74 25.45,-9.11 50.95,-4.14 76.82,14.97 24.98,18.47 36.72,41.69 35.36,69.6 -1.08,28.04 -15.19,60.21 -41.99,96.68zm-104.95 -77.35c-19.24,26.52 -30.88,47.27 -34.83,61.91 -4.17,14.57 -0.56,26.06 10.46,34.24 10.66,7.69 22.39,7.44 35.39,-0.55 13.28,-8.16 29.42,-25.26 48.63,-51.41 19.92,-26.53 31.59,-47.28 35.35,-62.47 3.59,-15 0.13,-26.49 -10.53,-34.21 -11.02,-8.03 -23.03,-7.84 -35.91,0.52 -12.53,8.19 -28.71,25.45 -48.56,51.97z"></path> <path class="fil5" d="M2363.26 3030.13c-27.63,37.57 -54.12,60.89 -79.57,70.18 -25.41,9.14 -51.13,4.42 -76.76,-14.36 -24.76,-18.49 -36.8,-41.71 -35.97,-69.62 1.11,-27.92 15.07,-60.21 41.99,-96.68 28.32,-38.29 55,-61.91 80.13,-70.74 25.41,-9.11 50.98,-4.11 76.79,14.91 24.98,18.53 36.78,41.72 35.39,69.63 -1.12,28.07 -15.23,60.21 -42,96.68zm-104.98 -77.35c-19.2,26.52 -30.81,47.24 -34.83,61.91 -4.13,14.63 -0.58,26.09 10.47,34.24 10.71,7.75 22.39,7.47 35.42,-0.52 13.24,-8.19 29.39,-25.32 48.6,-51.41 19.91,-26.53 31.64,-47.25 35.38,-62.44 3.58,-15.03 0.12,-26.55 -10.5,-34.27 -11.05,-8.03 -23.06,-7.87 -35.91,0.56 -12.56,8.15 -28.77,25.44 -48.63,51.93z"></path> <polygon class="fil5" points="2332.36,3172.96 2543.99,3055.32 2437.89,2977.42 2466.05,2939.29 2620.75,3053.13 2599.78,3081.85 2380.43,3208.38 "></polygon> </g> <g> <g> <polygon class="fil6" points="15504.9,2872.59 4508,2872.59 4508,2846.47 15504.9,2846.47 "></polygon> </g> <path class="fil5" d="M4912.49 3519.56l-88.74 0 -49.59 -193.42c-1.91,-6.63 -5.22,-20.65 -9.94,-42.45 -4.39,-21.61 -6.86,-36.07 -7.13,-43.54 -1.11,9.23 -3.71,24.02 -7.72,44.09 -4.17,19.89 -7.17,34.03 -9.36,42.46l-49.62 192.86 -88.71 0 -93.65 -367.56 76.55 0 47.42 200.58c7.97,37.2 13.9,69.28 17.64,96.42 1.11,-9.51 3.3,-24.27 6.6,-44.03 3.58,-20.19 7.17,-36 10.47,-47.42l53.45 -205.55 73.86 0 53.44 205.55c2.47,9.63 5.5,23.96 8.8,42.98 3.59,18.74 6.36,34.98 8.25,48.47 1.36,-13.18 4.01,-29.45 7.75,-49.03 3.98,-19.42 7.44,-35.26 10.46,-47.39l46.85 -200.58 76.54 0 -93.62 367.56z"></path> <path class="fil5" d="M5168.46 3287.58c-16.24,0 -28.93,5.22 -38.04,15.38 -9.23,10.4 -14.61,25.1 -15.96,44.12l108 0c-0.43,-19.02 -5.4,-33.72 -14.85,-44.12 -9.72,-10.16 -22.66,-15.38 -39.15,-15.38zm11.02 236.89c-45.2,0 -80.74,-12.38 -106.37,-37.43 -25.32,-24.94 -38.01,-60.39 -38.01,-106.37 0,-46.99 11.7,-83.33 35.26,-109.12 23.41,-25.59 56.17,-38.53 98.1,-38.53 39.68,0 70.52,11.46 92.57,34.15 22.04,22.45 33.07,53.73 33.07,93.68l0 36.93 -181.31 0c0.68,22.01 7.16,39.12 19.3,51.22 12.16,12.14 28.93,18.22 50.7,18.22 17.19,0 33.31,-1.67 48.47,-5 15.01,-3.55 30.6,-9.36 46.84,-17.11l0 59.6c-13.24,6.57 -27.54,11.54 -42.98,14.85 -15.16,3.3 -33.59,4.91 -55.64,4.91z"></path> <path class="fil5" d="M5519.01 3233.02c33.1,0 58.97,13.06 77.71,39.09 19.02,25.78 28.69,61.2 28.69,106.37 0,46.25 -9.79,82.38 -29.21,108.01 -19.58,25.35 -46.04,37.98 -79.36,37.98 -33.07,0 -58.97,-11.83 -77.74,-35.76l-4.91 0 -13.25 30.85 -58.39 0 0 -391.24 76.55 0 0 90.9c0,11.45 -0.93,30.04 -2.72,55.67l2.72 0c17.97,-27.82 44.67,-41.87 79.91,-41.87zm-24.77 61.2c-18.74,0 -32.48,5.86 -41.31,17.57 -8.83,11.85 -13.53,31.12 -13.83,57.86l0 8.28c0,30.16 4.44,51.81 13.27,65.02 9.08,12.94 23.41,19.27 42.98,19.27 15.66,0 28.22,-7.13 37.46,-21.49 9.54,-14.57 14.32,-35.76 14.32,-63.33 0,-27.57 -4.78,-48.23 -14.32,-62.25 -9.24,-13.98 -22.05,-20.93 -38.57,-20.93z"></path> <path class="fil5" d="M6145.78 3332.2c0,60.58 -17.36,107.17 -51.79,139.41 -34.58,31.92 -84.35,47.95 -149.32,47.95l-104.14 0 0 -367.56 115.69 0c59.78,0 106.37,15.84 139.44,47.39 33.29,31.65 50.12,75.93 50.12,132.81zm-80.96 2.16c0,-79.36 -35.05,-119 -104.74,-119l-41.31 0 0 239.73 33.07 0c75.21,0 112.98,-40.2 112.98,-120.73z"></path> <path class="fil5" d="M6338.01 3287.58c-16.24,0 -28.93,5.22 -38.04,15.38 -9.2,10.4 -14.6,25.1 -15.96,44.12l108.01 0c-0.43,-19.02 -5.37,-33.72 -14.92,-44.12 -9.6,-10.16 -22.6,-15.38 -39.09,-15.38zm11.03 236.89c-45.21,0 -80.71,-12.38 -106.37,-37.43 -25.32,-24.94 -38.01,-60.39 -38.01,-106.37 0,-46.99 11.7,-83.33 35.29,-109.12 23.37,-25.59 56.2,-38.53 98.06,-38.53 39.68,0 70.5,11.46 92.6,34.15 22.02,22.45 33.04,53.73 33.04,93.68l0 36.93 -181.31 0c0.68,22.01 7.2,39.12 19.3,51.22 12.11,12.14 28.93,18.22 50.7,18.22 17.23,0 33.32,-1.67 48.48,-5 15,-3.55 30.6,-9.36 46.84,-17.11l0 59.6c-13.25,6.57 -27.51,11.54 -42.98,14.85 -15.19,3.3 -33.6,4.91 -55.64,4.91z"></path> <path class="fil5" d="M6728.27 3435.82c0,28.99 -10.22,51.1 -30.29,66.08 -19.86,15.19 -49.87,22.57 -89.82,22.57 -20.26,0 -37.8,-1.48 -52.37,-4.36 -14.3,-2.47 -27.85,-6.63 -40.2,-12.13l0 -63.36c14.32,7.01 30.29,12.69 47.95,17.04 17.91,4.45 33.72,6.64 47.4,6.64 27.75,0 41.86,-7.99 41.86,-24.24 0,-5.77 -1.91,-10.65 -5.55,-14.32 -3.68,-3.58 -10.16,-7.88 -19.27,-12.69 -9.17,-5.1 -21.37,-10.72 -36.34,-17.08 -21.77,-9.11 -37.77,-17.66 -47.95,-25.35 -9.92,-7.69 -17.36,-16.52 -22.05,-26.46 -4.42,-9.91 -6.61,-22.17 -6.61,-36.9 0,-24.92 9.51,-44.21 28.66,-57.86 19.42,-13.49 46.99,-20.38 82.65,-20.38 33.78,0 66.82,7.41 99.18,21.98l-23.16 55.71c-14.32,-6.21 -27.51,-11.15 -39.64,-14.89 -12.14,-4.01 -24.67,-6.05 -37.49,-6.05 -22.85,0 -34.15,6.36 -34.15,18.74 0,6.64 3.58,12.54 10.99,17.63 7.32,5.22 23.32,12.66 47.96,22.58 22.04,8.83 38.16,17.04 48.47,24.79 10.19,7.72 17.79,16.8 22.57,27.02 4.73,9.91 7.2,21.73 7.2,35.29z"></path> <path class="fil5" d="M6790.92 3165.8c0,-24.95 13.89,-37.48 41.87,-37.48 27.82,0 41.86,12.53 41.86,37.48 0,11.83 -3.58,20.94 -10.46,27.57 -7.04,6.58 -17.51,9.92 -31.4,9.92 -27.98,0 -41.87,-12.45 -41.87,-37.49zm79.84 353.76l-76.57 0 0 -281.04 76.57 0 0 281.04z"></path> <path class="fil5" d="M7202.17 3238.52l0 38.59 -44.1 11.55c8,12.51 12.11,26.74 12.11,42.43 0,30.16 -10.47,53.69 -31.4,70.52 -20.91,16.98 -50.12,25.35 -87.6,25.35l-13.77 -1.05 -11.58 -1.18c-7.72,5.96 -11.58,12.57 -11.58,19.89 0,11.45 13.92,17.04 41.93,17.04l47.89 0c30.91,0 54.28,6.64 70.55,19.86 16.12,13.27 24.24,32.79 24.24,58.42 0,32.63 -13.77,57.98 -41.34,76.08 -27.3,18.28 -66.51,27.51 -117.92,27.51 -38.97,0 -68.83,-7.07 -89.82,-20.94 -20.69,-13.64 -30.85,-32.79 -30.85,-57.3 0,-16.92 5.13,-31.16 15.47,-42.43 10.59,-11.3 26.12,-19.39 46.78,-24.24 -7.69,-3.33 -14.57,-8.83 -20.32,-16.55 -5.96,-7.72 -8.86,-15.71 -8.86,-24.24 0,-10.99 2.9,-19.97 8.86,-27.01 6.15,-6.89 15.1,-13.9 26.96,-20.94 -14.76,-6.2 -26.46,-16.24 -35.26,-30.29 -8.56,-14.32 -12.69,-31 -12.69,-50.14 0,-30.88 9.91,-54.56 29.73,-71.08 20.19,-16.83 48.79,-25.35 86.02,-25.35 7.69,0 16.77,0.8 27.52,2.22 11.02,1.49 17.9,2.6 20.93,3.28l98.1 0zm-217.1 320.68c0,10.63 5.1,18.9 15.38,24.8 10.22,6.24 24.42,9.35 42.48,9.35 27.52,0 49.01,-3.83 64.47,-11.54 15.69,-7.45 23.69,-17.63 23.69,-30.85 0,-10.75 -4.66,-18.06 -13.77,-22.05 -9.24,-4.13 -23.53,-6.05 -42.98,-6.05l-39.65 0c-14.11,0 -25.78,3.34 -35.29,9.91 -9.61,6.61 -14.33,15.44 -14.33,26.43zm28.13 -228.67c0,15.16 3.4,27.29 10.47,36.4 6.82,8.8 17.6,13.22 31.95,13.22 14.27,0 24.74,-4.42 31.41,-13.22 6.57,-9.11 9.91,-21.24 9.91,-36.4 0,-34.15 -13.8,-51.23 -41.32,-51.23 -28.4,0 -42.42,17.08 -42.42,51.23z"></path> <path class="fil5" d="M7514.08 3519.56l-76.6 0 0 -164.27c0,-20.07 -3.68,-35.35 -10.99,-45.7 -7.04,-10.18 -18.5,-15.37 -34.18,-15.37 -21.8,0 -37.33,7.1 -46.84,21.43 -9.64,14.32 -14.3,38.35 -14.3,71.66l0 132.25 -76.61 0 0 -281.04 58.39 0 10.47 35.81 4.42 0c8.39,-13.49 20.1,-23.83 35.29,-30.84 15,-6.89 32.08,-10.47 51.22,-10.47 32.64,0 57.43,8.8 74.35,26.43 16.83,17.66 25.38,43.26 25.38,76.64l0 183.47z"></path> <path class="fil5" d="M7674.61 3465.55c-8.86,33.88 -23.68,73.95 -44.61,120.67l-55.15 0c10.62,-44.89 19.02,-87.04 25.35,-126.75l70.55 0 3.86 6.08z"></path> <path class="fil5" d="M8205.88 3332.2c0,60.58 -17.38,107.17 -51.81,139.41 -34.58,31.92 -84.29,47.95 -149.32,47.95l-104.15 0 0 -367.56 115.73 0c59.78,0 106.34,15.84 139.41,47.39 33.31,31.65 50.14,75.93 50.14,132.81zm-80.99 2.16c0,-79.36 -35.01,-119 -104.7,-119l-41.35 0 0 239.73 33.07 0c75.22,0 112.98,-40.2 112.98,-120.73z"></path> <path class="fil5" d="M8278.47 3165.8c0,-24.95 13.96,-37.48 41.93,-37.48 27.82,0 41.87,12.53 41.87,37.48 0,11.83 -3.58,20.94 -10.46,27.57 -6.98,6.58 -17.51,9.92 -31.41,9.92 -27.97,0 -41.93,-12.45 -41.93,-37.49zm79.97 353.76l-76.6 0 0 -281.04 76.6 0 0 281.04z"></path> <path class="fil5" d="M8689.75 3238.52l0 38.59 -44.06 11.55c8,12.51 12.14,26.74 12.14,42.43 0,30.16 -10.47,53.69 -31.41,70.52 -20.93,16.98 -50.14,25.35 -87.62,25.35l-13.78 -1.05 -11.57 -1.18c-7.69,5.96 -11.55,12.57 -11.55,19.89 0,11.45 13.89,17.04 41.87,17.04l47.92 0c30.87,0 54.31,6.64 70.55,19.86 16.12,13.27 24.24,32.79 24.24,58.42 0,32.63 -13.77,57.98 -41.31,76.08 -27.3,18.28 -66.54,27.51 -117.95,27.51 -38.97,0 -68.83,-7.07 -89.76,-20.94 -20.72,-13.64 -30.91,-32.79 -30.91,-57.3 0,-16.92 5.13,-31.16 15.44,-42.43 10.62,-11.3 26.18,-19.39 46.87,-24.24 -7.75,-3.33 -14.64,-8.83 -20.44,-16.55 -5.9,-7.72 -8.8,-15.71 -8.8,-24.24 0,-10.99 2.9,-19.97 8.8,-27.01 6.21,-6.89 15.16,-13.9 27.02,-20.94 -14.7,-6.2 -26.46,-16.24 -35.26,-30.29 -8.56,-14.32 -12.7,-31 -12.7,-50.14 0,-30.88 9.98,-54.56 29.77,-71.08 20.1,-16.83 48.79,-25.35 85.96,-25.35 7.72,0 16.77,0.8 27.54,2.22 11.03,1.49 17.91,2.6 20.94,3.28l98.06 0zm-217.06 320.68c0,10.63 5.09,18.9 15.41,24.8 10.25,6.24 24.42,9.35 42.45,9.35 27.51,0 49,-3.83 64.47,-11.54 15.69,-7.45 23.69,-17.63 23.69,-30.85 0,-10.75 -4.67,-18.06 -13.78,-22.05 -9.26,-4.13 -23.52,-6.05 -42.98,-6.05l-39.67 0c-14.08,0 -25.79,3.34 -35.26,9.91 -9.67,6.61 -14.33,15.44 -14.33,26.43zm28.13 -228.67c0,15.16 3.42,27.29 10.43,36.4 6.86,8.8 17.63,13.22 31.96,13.22 14.33,0 24.8,-4.42 31.43,-13.22 6.58,-9.11 9.92,-21.24 9.92,-36.4 0,-34.15 -13.81,-51.23 -41.35,-51.23 -28.37,0 -42.39,17.08 -42.39,51.23z"></path> <path class="fil5" d="M8738.88 3165.8c0,-24.95 13.89,-37.48 41.87,-37.48 27.82,0 41.87,12.53 41.87,37.48 0,11.83 -3.59,20.94 -10.47,27.57 -7.04,6.58 -17.51,9.92 -31.4,9.92 -27.98,0 -41.87,-12.45 -41.87,-37.49zm79.91 353.76l-76.61 0 0 -281.04 76.61 0 0 281.04z"></path> <path class="fil5" d="M9023.96 3463.33c13.47,0 29.74,-2.9 48.51,-8.8l0 57.31c-19.17,8.4 -42.73,12.63 -70.55,12.63 -30.85,0 -53.33,-7.69 -67.22,-23.1 -14.05,-15.44 -20.94,-38.72 -20.94,-70l0 -135.55 -36.95 0 0 -32.51 42.48 -25.35 21.99 -59.5 49.06 0 0 60.06 78.8 0 0 57.3 -78.8 0 0 135.55c0,11.03 3.03,19.15 9.36,24.21 6.2,5.28 14.35,7.75 24.26,7.75z"></path> <path class="fil5" d="M9313.68 3519.56l-14.85 -38.04 -1.7 0c-13.21,16.27 -26.68,27.42 -40.23,33.65 -13.62,6.15 -31.4,9.3 -53.45,9.3 -26.83,0 -48.2,-7.69 -63.88,-23.1 -15.47,-15.44 -23.16,-37.24 -23.16,-65.55 0,-30.11 10.47,-52.09 31.4,-66.17 20.94,-14.36 52.49,-22.17 94.79,-23.65l48.48 -1.67 0 -12.13c0,-28.63 -14.6,-42.98 -43.54,-42.98 -22.84,0 -49.31,6.91 -79.35,20.37l-25.32 -51.78c32.21,-16.82 68.05,-25.35 107.39,-25.35 37.79,0 66.73,8.25 86.55,24.8 20.13,16.52 30.32,41.59 30.32,74.94l0 187.36 -53.45 0zm-22.6 -130.06l-29.73 0.56c-22.05,0.8 -38.6,4.82 -49.62,12.1 -11.03,7.45 -16.52,18.62 -16.52,33.66 0,21.74 12.44,32.48 37.48,32.48 17.57,0 31.65,-4.97 42.43,-14.88 10.59,-10.22 15.96,-23.84 15.96,-40.76l0 -23.16z"></path> <polygon class="fil5" points="9452.29,3519.56 9528.89,3519.56 9528.89,3128.32 9452.29,3128.32 "></polygon> <path class="fil5" d="M9917.48 3519.56l-88.65 -288.76 -2.22 0c2.9,58.82 4.38,98.09 4.38,117.92l0 170.84 -69.41 0 0 -367.56 106.34 0 87.08 281.04 1.14 0 92.54 -281.04 106.34 0 0 367.56 -72.75 0 0 -174.12c0,-7.99 0,-17.38 0,-28.13 0.28,-11.02 1.39,-39.67 3.3,-85.96l-2.19 0 -94.76 288.21 -71.14 0z"></path> <path class="fil5" d="M10425.71 3519.56l-14.91 -38.04 -1.64 0c-13.24,16.27 -26.74,27.42 -40.23,33.65 -13.65,6.15 -31.43,9.3 -53.48,9.3 -26.86,0 -48.2,-7.69 -63.91,-23.1 -15.44,-15.44 -23.13,-37.24 -23.13,-65.55 0,-30.11 10.47,-52.09 31.4,-66.17 20.94,-14.36 52.49,-22.17 94.76,-23.65l48.48 -1.67 0 -12.13c0,-28.63 -14.57,-42.98 -43.51,-42.98 -22.88,0 -49.31,6.91 -79.35,20.37l-25.38 -51.78c32.27,-16.82 68.08,-25.35 107.48,-25.35 37.76,0 66.7,8.25 86.52,24.8 20.07,16.52 30.35,41.59 30.35,74.94l0 187.36 -53.45 0zm-22.66 -130.06l-29.73 0.56c-22.05,0.8 -38.6,4.82 -49.62,12.1 -11.03,7.45 -16.49,18.62 -16.49,33.66 0,21.74 12.38,32.48 37.45,32.48 17.63,0 31.68,-4.97 42.43,-14.88 10.62,-10.22 15.96,-23.84 15.96,-40.76l0 -23.16z"></path> <path class="fil5" d="M10721.33 3233.02c10.19,0 18.86,0.8 25.94,2.22l-6.12 72.16c-5.9,-1.79 -13.46,-2.75 -22.57,-2.75 -24.24,0 -43.35,6.46 -57.34,19.24 -13.61,12.57 -20.38,30.11 -20.38,52.4l0 143.27 -76.57 0 0 -281.04 58.42 0 11.02 46.84 3.86 0c8.83,-15.72 20.5,-28.38 35.29,-38.01 14.55,-9.51 30.79,-14.33 48.45,-14.33z"></path> <polygon class="fil5" points="10878.15,3366.38 10911.72,3323.89 10989.96,3238.52 11076.51,3238.52 10965.13,3360.29 11083.67,3519.56 10994.93,3519.56 10913.91,3405.47 10880.87,3431.93 10880.87,3519.56 10804.26,3519.56 10804.26,3128.32 10880.87,3128.32 10880.87,3302.4 10877.04,3366.38 "></polygon> <path class="fil5" d="M11245.99 3287.58c-16.24,0 -28.99,5.22 -38.01,15.38 -9.26,10.4 -14.61,25.1 -16.03,44.12l108.07 0c-0.46,-19.02 -5.46,-33.72 -14.94,-44.12 -9.57,-10.16 -22.54,-15.38 -39.09,-15.38zm10.99 236.89c-45.2,0 -80.71,-12.38 -106.31,-37.43 -25.38,-24.94 -38.01,-60.39 -38.01,-106.37 0,-46.99 11.64,-83.33 35.3,-109.12 23.4,-25.59 56.19,-38.53 98.03,-38.53 39.65,0 70.58,11.46 92.57,34.15 22.01,22.45 33.01,53.73 33.01,93.68l0 36.93 -181.25 0c0.65,22.01 7.19,39.12 19.3,51.22 12.07,12.14 28.96,18.22 50.73,18.22 17.1,0 33.34,-1.67 48.38,-5 15.13,-3.55 30.72,-9.36 46.93,-17.11l0 59.6c-13.27,6.57 -27.54,11.54 -43.01,14.85 -15.16,3.3 -33.56,4.91 -55.67,4.91z"></path> <path class="fil5" d="M11558.49 3463.33c13.5,0 29.86,-2.9 48.57,-8.8l0 57.31c-19.14,8.4 -42.67,12.63 -70.58,12.63 -30.82,0 -53.26,-7.69 -67.19,-23.1 -14.05,-15.44 -20.93,-38.72 -20.93,-70l0 -135.55 -36.9 0 0 -32.51 42.45 -25.35 22.02 -59.5 49 0 0 60.06 78.77 0 0 57.3 -78.77 0 0 135.55c0,11.03 3.06,19.15 9.39,24.21 6.2,5.28 14.26,7.75 24.17,7.75z"></path> <path class="fil5" d="M11666.44 3165.8c0,-24.95 13.96,-37.48 41.84,-37.48 27.88,0 41.93,12.53 41.93,37.48 0,11.83 -3.61,20.94 -10.47,27.57 -7.07,6.58 -17.54,9.92 -31.46,9.92 -27.88,0 -41.84,-12.45 -41.84,-37.49zm79.94 353.76l-76.67 0 0 -281.04 76.67 0 0 281.04z"></path> <path class="fil5" d="M12092.57 3519.56l-76.57 0 0 -164.27c0,-20.07 -3.71,-35.35 -11.03,-45.7 -7.07,-10.18 -18.49,-15.37 -34.18,-15.37 -21.8,0 -37.36,7.1 -46.84,21.43 -9.6,14.32 -14.26,38.35 -14.26,71.66l0 132.25 -76.58 0 0 -281.04 58.36 0 10.47 35.81 4.35 0c8.49,-13.49 20.16,-23.83 35.29,-30.84 15.04,-6.89 32.15,-10.47 51.32,-10.47 32.67,0 57.4,8.8 74.38,26.43 16.8,17.66 25.29,43.26 25.29,76.64l0 183.47z"></path> <path class="fil5" d="M12422.28 3238.52l0 38.59 -44.1 11.55c7.94,12.51 12.08,26.74 12.08,42.43 0,30.16 -10.47,53.69 -31.38,70.52 -20.9,16.98 -50.11,25.35 -87.56,25.35l-13.83 -1.05 -11.55 -1.18c-7.75,5.96 -11.55,12.57 -11.55,19.89 0,11.45 13.83,17.04 41.84,17.04l47.92 0c30.94,0 54.34,6.64 70.58,19.86 16.12,13.27 24.18,32.79 24.18,58.42 0,32.63 -13.74,57.98 -41.28,76.08 -27.24,18.28 -66.57,27.51 -117.86,27.51 -39.12,0 -68.95,-7.07 -89.88,-20.94 -20.69,-13.64 -30.82,-32.79 -30.82,-57.3 0,-16.92 5.13,-31.16 15.35,-42.43 10.68,-11.3 26.15,-19.39 46.84,-24.24 -7.63,-3.33 -14.58,-8.83 -20.35,-16.55 -5.9,-7.72 -8.83,-15.71 -8.83,-24.24 0,-10.99 2.93,-19.97 8.83,-27.01 6.21,-6.89 15.13,-13.9 27.02,-20.94 -14.73,-6.2 -26.49,-16.24 -35.29,-30.29 -8.53,-14.32 -12.66,-31 -12.66,-50.14 0,-30.88 9.91,-54.56 29.73,-71.08 20.16,-16.83 48.82,-25.35 85.96,-25.35 7.72,0 16.89,0.8 27.54,2.22 11.03,1.49 18.01,2.6 20.94,3.28l98.13 0zm-217.1 320.68c0,10.63 5.03,18.9 15.38,24.8 10.22,6.24 24.39,9.35 42.48,9.35 27.55,0 49,-3.83 64.47,-11.54 15.69,-7.45 23.66,-17.63 23.66,-30.85 0,-10.75 -4.7,-18.06 -13.74,-22.05 -9.27,-4.13 -23.63,-6.05 -43.02,-6.05l-39.64 0c-14.08,0 -25.72,3.34 -35.29,9.91 -9.61,6.61 -14.3,15.44 -14.3,26.43zm28.13 -228.67c0,15.16 3.36,27.29 10.44,36.4 6.88,8.8 17.66,13.22 31.92,13.22 14.39,0 24.83,-4.42 31.47,-13.22 6.54,-9.11 9.91,-21.24 9.91,-36.4 0,-34.15 -13.84,-51.23 -41.38,-51.23 -28.44,0 -42.36,17.08 -42.36,51.23z"></path> <path class="fil5" d="M12960.61 3519.56l-94.79 0 -28.62 -28.66c-32.36,22.42 -68.73,33.57 -109.06,33.57 -40.85,0 -73.3,-9.3 -97.6,-28.07 -23.96,-18.71 -35.82,-44.09 -35.82,-76.05 0,-23.13 5.13,-42.7 15.47,-58.97 10.13,-16.06 27.67,-31.13 52.28,-45.18 -12.54,-14.54 -21.68,-28.37 -27.55,-41.31 -5.46,-13.25 -8.3,-27.7 -8.3,-43.54 0,-25.35 9.69,-45.73 29.3,-61.16 19.39,-15.72 45.42,-23.69 78.21,-23.69 31.16,0 56.23,7.44 74.94,22.05 18.74,14.36 28.13,33.56 28.13,57.86 0,19.83 -5.9,38.01 -17.66,54.53 -11.43,16.55 -30.17,32.42 -56.2,47.4l71.67 69.44c11.67,-19.45 22.01,-44.65 30.81,-75.49l79.97 0c-5.99,22.84 -14.17,45.04 -24.85,66.66 -10.78,21.33 -22.54,40.23 -35.82,56.72l75.49 73.89zm-284.87 -106.9c0,14.73 5.25,26.31 16.03,34.71 10.99,8.52 24.82,12.66 41.84,12.66 21.24,0 40.38,-5.13 57.27,-15.41l-83.77 -82.69c-9.57,7.44 -17.29,15.16 -23.18,23.16 -5.44,8.12 -8.19,17.35 -8.19,27.57zm90.41 -177.97c0,-8.83 -3.24,-15.75 -9.45,-20.94 -5.89,-5.12 -13.61,-7.75 -23.09,-7.75 -11.46,0 -20.38,2.75 -27.02,8.31 -6.33,5.22 -9.39,12.63 -9.39,22.57 0,14.73 8.06,30.85 24.3,48.48 14.27,-7.72 25.29,-15.44 33.01,-23.1 7.72,-8 11.64,-17.26 11.64,-27.57z"></path> <polygon class="fil5" points="13364.51,3519.56 13152.85,3519.56 13152.85,3152 13364.51,3152 13364.51,3215.36 13231.19,3215.36 13231.19,3296.38 13355.68,3296.38 13355.68,3360.29 13231.19,3360.29 13231.19,3455.09 13364.51,3455.09 "></polygon> <path class="fil5" d="M13525.6 3315.15l24.82 0c24.52,0 42.71,-4.04 54.59,-12.19 11.65,-8.37 17.64,-21.49 17.64,-39.09 0,-17.23 -6.09,-29.49 -18.19,-36.93 -11.86,-7.72 -30.26,-11.58 -55.64,-11.58l-23.22 0 0 99.79zm0 63.33l0 141.08 -78.21 0 0 -367.56 106.96 0c50.23,0 87.25,9.23 111.21,27.54 23.87,18.06 35.85,45.48 35.85,82.1 0,21.8 -5.99,41.07 -18.18,57.87 -11.89,16.95 -28.44,30.16 -50.12,39.67 55.33,82.66 91.49,136.11 107.95,160.38l-86.49 0 -87.56 -141.08 -41.41 0z"></path> <path class="fil5" d="M13871.67 3325.06l25.38 0c23.84,0 41.59,-4.72 53.48,-14.35 12.1,-9.54 18.18,-23.28 18.18,-41.35 0,-18.31 -5,-31.96 -14.91,-40.76 -9.91,-8.83 -25.6,-13.24 -46.84,-13.24l-35.29 0 0 109.7zm175.81 -58.42c0,39.4 -12.54,69.69 -37.48,90.91 -24.61,20.93 -59.81,31.4 -105.23,31.4l-33.1 0 0 130.61 -78.21 0 0 -367.56 117.3 0c44.89,0 78.86,9.66 101.95,28.65 23.22,19.15 34.77,47.8 34.77,85.99z"></path> <path class="fil5" d="M14559.42 3211.53c-29.4,0 -52.18,11.02 -68.3,33.07 -16.21,22.04 -24.18,52.74 -24.18,92.01 0,81.98 30.85,122.86 92.48,122.86 25.72,0 56.97,-6.36 93.8,-19.27l0 65.56c-30.16,12.56 -63.94,18.71 -101.43,18.71 -53.35,0 -94.2,-16.06 -122.86,-48.45 -28.43,-32.67 -42.48,-79.35 -42.48,-139.93 0,-38.2 6.85,-71.67 20.93,-100.32 13.93,-28.93 33.87,-50.95 60.12,-66.14 26.03,-15.41 56.75,-23.13 91.92,-23.13 35.63,0 71.48,8.68 107.51,25.94l-25.38 63.33c-13.61,-6.64 -27.45,-12.23 -41.28,-17.11 -14.05,-4.66 -27.54,-7.13 -40.85,-7.13z"></path> <path class="fil5" d="M14815.51 3315.15l24.73 0c24.61,0 42.71,-4.04 54.56,-12.19 11.77,-8.37 17.67,-21.49 17.67,-39.09 0,-17.23 -5.99,-29.49 -18.19,-36.93 -11.89,-7.72 -30.29,-11.58 -55.67,-11.58l-23.1 0 0 99.79zm0 63.33l0 141.08 -78.3 0 0 -367.56 106.96 0c50.2,0 87.35,9.23 111.31,27.54 23.74,18.06 35.85,45.48 35.85,82.1 0,21.8 -6.12,41.07 -18.31,57.87 -11.77,16.95 -28.41,30.16 -50.12,39.67 55.46,82.66 91.52,136.11 108.07,160.38l-86.61 0 -87.57 -141.08 -41.28 0z"></path> <path class="fil5" d="M15239.24 3519.56l-88.65 -288.76 -2.32 0c2.97,58.82 4.48,98.09 4.48,117.92l0 170.84 -69.5 0 0 -367.56 106.43 0 87.04 281.04 1.08 0 92.6 -281.04 106.4 0 0 367.56 -72.74 0 0 -174.12c0,-7.99 0,-17.38 0,-28.13 0.21,-11.02 1.29,-39.67 3.27,-85.96l-2.19 0 -94.89 288.21 -71.01 0z"></path> <g> <polygon class="fil6" points="14176.22,3502.3 14176.22,3156.94 14228.5,3156.94 14228.5,3502.3 "></polygon> </g> </g> </g> </g> </g> </svg> 